<?xml version="1.0" standalone="no"?>
<!DOCTYPE svg PUBLIC "-//W3C//DTD SVG 1.1//EN" "http://www.w3.org/Graphics/SVG/1.1/DTD/svg11.dtd" >
<!--
2013-9-30: Created.
-->
<svg>
<metadata>
Created by iconfont
</metadata>
<defs>

<font id="iconfont" horiz-adv-x="1024" >
  <font-face
    font-family="iconfont"
    font-weight="500"
    font-stretch="normal"
    units-per-em="1024"
    ascent="896"
    descent="-128"
  />
    <missing-glyph />
    
    <glyph glyph-name="yinfu" unicode="&#58992;" d="M618.666667 750.677333a42.666667 42.666667 0 0 0 24.256-7.573333l210.090666-145.130667-47.189333-70.997333-144.746667 102.912 0.021334-406.613333c0.149333-3.306667 0.234667-6.613333 0.234666-9.941334 0-117.824-95.509333-213.333333-213.333333-213.333333s-213.333333 95.509333-213.333333 213.333333 95.509333 213.333333 213.333333 213.333334c48.042667 0 92.373333-15.872 128-42.666667V708.010667a42.666667 42.666667 0 0 0 42.666667 42.666666zM448 341.333333a128 128 0 1 1 0-256 128 128 0 0 1 0 256z"  horiz-adv-x="1024" />

    
    <glyph glyph-name="yinle" unicode="&#58991;" d="M624.26283 685.120264l0-585.398684c0.00614-0.907673 0.008186-1.815345 0-2.723018l0-3.992941c0-0.632403-0.11461-1.233084-0.186242-1.847068-4.118807-97.095385-89.145319-192.040804-211.180723-225.925542-142.896524-39.677675-282.325064 19.388583-311.423799 131.926682C72.372308 109.697793 164.620291 233.093171 307.517839 272.770845c96.997148 26.931373 192.352913 8.327666 252.732072-41.574884L560.249911 701.12375c0 0-2.99931 78.515215 128.026862 32.006971 131.029242-46.51029 240.051261-48.010457 240.051261-48.010457l0-64.010873C928.32701 621.109392 772.294304 626.110289 624.26283 685.120264zM541.344329 127.735611c-18.111496 78.332043-129.760342 111.720478-221.932602 83.099626-92.169189-28.621874-174.456311-122.235972-156.344814-200.565968 18.111496-78.332043 129.764436-111.722524 221.929532-83.10065C477.16768-44.208483 559.455825 49.403568 541.344329 127.735611z"  horiz-adv-x="1024" />

    
    <glyph glyph-name="14" unicode="&#58894;" d="M510.866-62.389c-119.428 0-231.698 46.519-316.147 130.967-174.327 174.315-174.327 457.964 0 632.286 84.449 84.449 196.72 130.956 316.147 130.956 119.426 0 231.697-46.506 316.144-130.948 174.328-174.327 174.328-457.977 0-632.292-84.447-84.448-196.718-130.968-316.144-130.968zM510.866 751.601c-98.002 0-190.127-38.163-259.43-107.459-143.046-143.046-143.046-375.801 0-518.846 69.302-69.29 161.428-107.467 259.43-107.467 98 0 190.126 38.176 259.43 107.467 143.044 143.045 143.044 375.8 0 518.853-69.303 69.288-161.43 107.452-259.43 107.452zM510.866 231.75c-40.867 0-79.28 15.909-108.159 44.803-59.642 59.64-59.642 156.689 0 216.33 28.88 28.893 67.293 44.803 108.159 44.803 40.866 0 79.277-15.91 108.158-44.803 28.892-28.893 44.809-67.305 44.809-108.166s-15.917-79.271-44.809-108.164c-28.882-28.894-67.293-44.803-108.158-44.803zM510.866 457.468c-19.428 0-37.709-7.566-51.444-21.301-28.358-28.372-28.358-74.526 0-102.897 13.735-13.736 32.015-21.301 51.444-21.301 19.426 0 37.706 7.566 51.442 21.301 28.359 28.371 28.359 74.524 0 102.897-13.736 13.735-32.014 21.301-51.442 21.301zM629.141 527.325c-5.744 0-11.514 1.835-16.398 5.628-11.66 9.060-13.76 25.865-4.7 37.524l76.799 98.804c9.073 11.659 25.863 13.748 37.523 4.7 11.661-9.061 13.761-25.865 4.701-37.525l-76.798-98.803c-5.274-6.775-13.161-10.328-21.126-10.328zM680.231 476.277c-7.962 0-15.849 3.545-21.124 10.327-9.062 11.659-6.96 28.461 4.7 37.524l98.797 76.791c11.646 9.068 28.437 6.985 37.525-4.7 9.060-11.66 6.96-28.462-4.702-37.525l-98.797-76.79c-4.882-3.794-10.653-5.627-16.398-5.627zM315.764 89.821c-5.745 0-11.515 1.841-16.398 5.628-11.66 9.060-13.761 25.863-4.7 37.524l76.784 98.803c9.074 11.685 25.864 13.761 37.525 4.708 11.659-9.061 13.761-25.86 4.699-37.517l-76.784-98.817c-5.274-6.778-13.161-10.329-21.125-10.329zM242.728 162.885c-7.965 0-15.851 3.545-21.126 10.328-9.061 11.659-6.96 28.462 4.7 37.524l98.797 76.797c11.633 9.055 28.449 6.979 37.524-4.7 9.060-11.66 6.96-28.463-4.7-37.524l-98.797-76.798c-4.882-3.792-10.654-5.627-16.397-5.627z"  horiz-adv-x="1024" />

    
    <glyph glyph-name="daohangliebiao" unicode="&#58886;" d="M930.960258 351.773018 350.861046 351.773018c-17.813421 0-32.227279 14.414291-32.227279 32.226982 0 17.797341 14.413858 32.226982 32.227279 32.226982L930.960258 416.226982c17.813421 0 32.228303-14.429641 32.228303-32.226982C963.188561 366.187309 948.773679 351.773018 930.960258 351.773018zM930.960258 609.583758 350.861046 609.583758c-17.813421 0-32.227279 14.429641-32.227279 32.226982s14.413858 32.226982 32.227279 32.226982L930.960258 674.037722c17.813421 0 32.228303-14.429641 32.228303-32.226982S948.773679 609.583758 930.960258 609.583758zM125.267021 61.735295c-35.595118 0-64.455582 28.859281-64.455582 64.451918 0 35.593659 28.860464 64.452941 64.455582 64.452941s64.455582-28.859281 64.455582-64.452941C189.722603 90.594577 160.862139 61.735295 125.267021 61.735295zM125.267021 319.547059c-35.595118 0-64.455582 28.859281-64.455582 64.452941 0 35.593659 28.860464 64.452941 64.455582 64.452941s64.455582-28.859281 64.455582-64.452941C189.722603 348.406341 160.862139 319.547059 125.267021 319.547059zM125.267021 577.357799c-35.595118 0-64.455582 28.859281-64.455582 64.452941s28.860464 64.452941 64.455582 64.452941 64.455582-28.859281 64.455582-64.452941S160.862139 577.357799 125.267021 577.357799zM350.861046 158.415218 930.960258 158.415218c17.813421 0 32.228303-14.414291 32.228303-32.226982 0-17.811668-14.414882-32.225959-32.228303-32.225959L350.861046 93.962278c-17.813421 0-32.227279 14.414291-32.227279 32.225959C318.633766 144.000927 333.047625 158.415218 350.861046 158.415218z"  horiz-adv-x="1024" />

    
    <glyph glyph-name="liebiao" unicode="&#58979;" d="M153.597291 384c0 42.410033-34.381387 76.79142-76.804064 76.79142C34.381387 460.79142 0 426.411839 0 384c0-42.424483 34.381387-76.80587 76.793227-76.80587 42.422677 0 76.804064 34.381387 76.804064 76.80587zM972.791872 332.791872c28.281784 0 51.208128 22.924537 51.208128 51.208128 0 28.269141-22.924537 51.193678-51.208128 51.193678H256.000903c-28.283591 0-51.209934-22.924537-51.209934-51.193678 0-28.283591 22.924537-51.208128 51.209934-51.208128h716.790969zM972.791872 665.596839c28.281784 0 51.208128 22.924537 51.208128 51.193678 0 28.283591-22.924537 51.208128-51.208128 51.208128H256.000903c-28.283591 0-51.209934-22.924537-51.209934-51.208128 0-28.269141 22.924537-51.193678 51.209934-51.193678h716.790969zM153.597291 716.790517c0 42.424483-34.381387 76.80587-76.804064 76.805871C34.381387 793.596388 0 759.216806 0 716.790517c0-42.410033 34.381387-76.79142 76.793227-76.79142 42.422677 0 76.804064 34.381387 76.804064 76.79142zM972.791872-0.000452c28.281784 0 51.208128 22.911894 51.208128 51.195485 0 28.281784-22.924537 51.208128-51.208128 51.208128H256.000903c-28.283591 0-51.209934-22.924537-51.209934-51.208128 0-28.283591 22.924537-51.195484 51.209934-51.195485h716.790969zM153.597291 51.195033c0 42.410033-34.381387 76.804064-76.804064 76.804064C34.381387 127.999097 0 93.605066 0 51.195033c0-42.410033 34.381387-76.793227 76.793227-76.793227 42.422677 0 76.804064 34.381387 76.804064 76.793227z"  horiz-adv-x="1024" />

    
    <glyph glyph-name="biaoqian" unicode="&#59187;" d="M864 768 545.28 768C534.4 769.92 522.88 766.72 514.56 758.4l-441.6-441.6C65.28 309.12 62.72 298.88 63.36 289.28 62.72 279.04 65.28 268.8 72.96 261.12l313.6-313.6c7.68-7.68 17.92-10.88 27.52-9.6 10.24-1.28 21.12 1.92 28.8 9.6l441.6 441.6c3.84 3.84 6.4 8.96 8.32 14.08C894.72 407.04 896 411.52 896 416l0 320C896 753.92 881.92 768 864 768zM832 435.84 414.72 19.2 144.64 289.28 560 704 832 704 832 435.84zM640 448c35.2 0 64 28.8 64 64 0 35.2-28.8 64-64 64C604.8 576 576 547.2 576 512 576 476.8 604.8 448 640 448z"  horiz-adv-x="1024" />

    
    <glyph glyph-name="shengqian" unicode="&#58943;" d="M932.987763 800 720.625878 800C670.569149 800 600.654688 771.041044 565.258512 735.644868L208.570182 378.956538C173.175902 343.562259 173.175902 285.642451 208.570182 250.246275L474.246275-15.426026C509.640554-50.822202 567.560362-50.822202 602.956538-15.426026L959.641075 341.258512C995.041043 376.654688 1024 446.569149 1024 496.625878L1024 708.987764C1024 759.044494 983.044493 800 932.987763 800L932.987763 800ZM811.638115 496.625878C761.372816 496.625878 720.625878 537.372816 720.625878 587.638116 720.625878 637.903415 761.372816 678.650352 811.638115 678.650352 861.903414 678.650352 902.650352 637.903415 902.650352 587.638116 902.650352 537.372816 861.903414 496.625878 811.638115 496.625878L811.638115 496.625878ZM74.653261 293.152858 399.242714-31.436595C364.862842-49.60112 321.065098-44.273114 292.221804-15.426026L26.54571 250.246275C-8.84857 285.642451-8.84857 343.562259 26.54571 378.956538L383.234038 735.644868C418.630214 771.041044 488.544678 800 538.601408 800L74.653261 336.05375C62.8558 324.254394 62.8558 304.950317 74.653261 293.152858L74.653261 293.152858Z"  horiz-adv-x="1024" />

    
    <glyph glyph-name="shangyiyedanjiantou" unicode="&#59154;" d="M643.1 52.2c-7.7 0-15.4 2.9-21.2 8.8L320.1 362.8c-11.7 11.7-11.7 30.7 0 42.4L621.9 707c11.7 11.7 30.7 11.7 42.4 0s11.7-30.7 0-42.4L383.8 384l280.5-280.5c11.7-11.7 11.7-30.7 0-42.4-5.9-5.9-13.5-8.9-21.2-8.9z"  horiz-adv-x="1024" />

    
    <glyph glyph-name="shuangjiantouyou" unicode="&#59155;" d="M790.8 405.2L489 707c-11.7 11.7-30.7 11.7-42.4 0s-11.7-30.7 0-42.4L727.1 384 446.6 103.5c-11.7-11.7-11.7-30.7 0-42.4 5.9-5.9 13.5-8.8 21.2-8.8s15.4 2.9 21.2 8.8l301.7 301.8c11.8 11.6 11.8 30.6 0.1 42.3z m-213.4 0L275.7 707c-11.7 11.7-30.7 11.7-42.4 0s-11.7-30.7 0-42.4L513.8 384 233.3 103.5c-11.7-11.7-11.7-30.7 0-42.4 5.9-5.9 13.5-8.8 21.2-8.8s15.4 2.9 21.2 8.8l301.7 301.8c11.8 11.6 11.8 30.6 0 42.3z"  horiz-adv-x="1024" />

    
    <glyph glyph-name="shuangjiantouzuo" unicode="&#59156;" d="M296.9 384l280.5 280.5c11.7 11.7 11.7 30.7 0 42.4s-30.7 11.7-42.4 0L233.3 405.2c-11.7-11.7-11.7-30.7 0-42.4L535 61c5.9-5.9 13.5-8.8 21.2-8.8 7.7 0 15.4 2.9 21.2 8.8 11.7 11.7 11.7 30.7 0 42.4L296.9 384z m493.9-280.5L510.2 384l280.5 280.5c11.7 11.7 11.7 30.7 0 42.4s-30.7 11.7-42.4 0L446.6 405.2c-11.7-11.7-11.7-30.7 0-42.4L748.3 61c5.9-5.9 13.5-8.8 21.2-8.8 7.7 0 15.4 2.9 21.2 8.8 11.8 11.8 11.8 30.7 0.1 42.5z"  horiz-adv-x="1024" />

    
    <glyph glyph-name="xiayiyedanjiantou" unicode="&#59160;" d="M380.9 52.2c-7.7 0-15.4 2.9-21.2 8.8-11.7 11.7-11.7 30.7 0 42.4L640.2 384 359.7 664.5c-11.7 11.7-11.7 30.7 0 42.4s30.7 11.7 42.4 0l301.7-301.8c11.7-11.7 11.7-30.7 0-42.4L402.1 61c-5.8-5.8-13.5-8.8-21.2-8.8z"  horiz-adv-x="1024" />

    
    <glyph glyph-name="fangda1" unicode="&#58930;" d="M1004.148797-15.319214l-184.996958 184.635753a455.659607 455.659607 0 0 1-43.344552 593.398962 454.034186 454.034186 0 0 1-642.703391 0 455.539205 455.539205 0 0 1 0-643.546201 454.094387 454.094387 0 0 1 593.21836-42.923147l184.756155-184.455151c25.705728-25.585326 67.424859-25.585326 93.070386 0a65.618836 65.618836 0 0 1 0 92.889784zM213.351519 200.139332a342.783168 342.783168 0 0 0 0 483.532562 339.893532 339.893532 0 0 0 481.846941 0 342.783168 342.783168 0 0 0 0-483.532562 339.893532 339.893532 0 0 0-481.846941 0z m294.502153 291.492115l-0.842811 124.01358a45.150575 45.150575 0 1 1-90.30115-0.602008l0.84281-123.411572H301.003836a45.150575 45.150575 0 1 1 0-90.301151h117.150693l0.903012-131.598877a45.150575 45.150575 0 0 1 90.30115 0.602007l-0.903011 130.99687h125.879804a45.150575 45.150575 0 0 1 0 90.301151H507.853672z"  horiz-adv-x="1024" />

    
    <glyph glyph-name="huidaodingbu" unicode="&#59070;" d="M979.523232 197.818182c-9.309091 0-18.618182 0-23.272727 4.654545l-442.181818 265.309091-442.181818-265.309091c-23.272727-13.963636-51.2-4.654545-65.163636 13.963636-13.963636 23.272727-4.654545 51.2 13.963636 65.163636l465.454545 279.272727c13.963636 9.309091 32.581818 9.309091 46.545455 0l465.454545-279.272727c23.272727-13.963636 27.927273-41.890909 13.963636-65.163636C1012.10505 207.127273 993.486869 197.818182 979.523232 197.818182z"  horiz-adv-x="1027" />

    
    <glyph glyph-name="bofangda" unicode="&#58936;" d="M836.526491 461.332247C656.714048 598.559528 476.912443 735.799454 297.101806 873.026735c-64.023142 48.859957-156.302732 3.213259-156.302732-77.331343v-823.390784c0-80.544602 92.27959-126.1913 156.302732-77.329537 179.810637 137.227282 359.612242 274.467207 539.424685 411.694488 51.014773 38.93841 51.014773 115.724277 0 154.662688z"  horiz-adv-x="1024" />

    
    <glyph glyph-name="zantingda" unicode="&#58937;" d="M358.40298-63.996726V831.998532C358.40298 867.347991 329.750971 896 294.401513 896c-35.349459 0-64.003274-28.652009-64.003274-64.001468v-895.995258c0-35.338621 28.652009-64.003274 64.003274-64.003274 35.349459 0 64.001468 28.662846 64.001467 64.003274zM793.599955-63.996726V831.998532C793.599955 867.347991 764.947946 896 729.598487 896c-35.335009 0-63.988824-28.652009-63.988824-64.001468v-895.995258c0-35.338621 28.652009-64.003274 63.988824-64.003274 35.349459 0 64.001468 28.662846 64.001468 64.003274z"  horiz-adv-x="1024" />

    
    <glyph glyph-name="bofang1" unicode="&#58938;" d="M732.502883 430.397181c-107.883492 82.3454-215.772403 164.681769-323.652282 247.014525-38.414608 29.327534-93.780555 1.929039-93.780555-46.396277v-494.029051c0-48.325316 55.365948-75.725617 93.780555-46.398084 107.87988 82.332757 215.76879 164.669126 323.652282 247.014525 30.61356 23.357989 30.61356 69.436372 0 92.794362z"  horiz-adv-x="1024" />

    
    <glyph glyph-name="zanting1" unicode="&#58939;" d="M716.805057 115.201603V652.800203c0 21.204979-17.196985 38.40377-38.40377 38.403771s-38.401964-17.196985-38.401964-38.403771v-537.5986c0-21.204979 17.196985-38.392933 38.401964-38.392933s38.40377 17.187954 38.40377 38.392933zM384.000677 115.201603V652.800203c0 21.204979-17.187954 38.40377-38.391127 38.403771-21.215816 0-38.40377-17.196985-38.40377-38.403771v-537.5986c0-21.204979 17.187954-38.392933 38.40377-38.392933 21.203173 0 38.391127 17.187954 38.391127 38.392933z"  horiz-adv-x="1024" />

    
    <glyph glyph-name="shangyishou1" unicode="&#58940;" d="M364.302083 430.397181L687.954365 677.411706c38.416414 29.327534 93.791393 1.929039 93.791392-46.396277v-494.029051c0-48.325316-55.374979-75.725617-93.791392-46.398084L364.302083 337.602819c-30.600916 23.357989-30.600916 69.436372 0 92.794362zM238.945254 115.201603V444.315883v164.562559c0 19.628152-5.904521 60.475733 17.057907 75.841215 25.523642 17.068744 59.747828-1.210165 59.747828-31.919454v-493.676839c0-19.628152 5.915358-60.473927-17.047069-75.841215-25.53448-17.068744-59.758666 1.211971-59.758666 31.919454z"  horiz-adv-x="1024" />

    
    <glyph glyph-name="tingzhi" unicode="&#58941;" d="M296.962348 76.807225h430.086141c50.897458 0 92.151511 41.254053 92.151511 92.151511V599.041264c0 50.895652-41.252246 92.160542-92.151511 92.160542H296.962348c-50.897458 0-92.160542-41.26489-92.160542-92.160542v-430.082528c-0.001806-50.895652 41.261277-92.151511 92.160542-92.151511z"  horiz-adv-x="1024" />

    
    <glyph glyph-name="xiayishou" unicode="&#58942;" d="M655.706179 430.397181L332.053897 677.411706c-38.414608 29.327534-93.791393 1.929039-93.791392-46.396277v-494.029051c0-48.325316 55.376785-75.725617 93.791392-46.398084l323.652282 247.014525c30.602722 23.357989 30.602722 69.436372 0 92.794362zM781.064814 115.201603V444.315883v164.562559c0 19.628152 5.904521 60.475733-17.057907 75.841215-25.523642 17.068744-59.747828-1.210165-59.747828-31.919454v-493.676839c0-19.628152-5.915358-60.473927 17.047069-75.841215 25.532673-17.068744 59.758666 1.211971 59.758666 31.919454z"  horiz-adv-x="1024" />

    
    <glyph glyph-name="QQ" unicode="&#58960;" d="M110.260667 82.599771c22.819777-7.712557 47.729349-3.02903 70.124665 13.347962 0.596052-0.899497 1.152368-1.784545 1.732164-2.658756-38.270178-23.347193-59.621498-55.942229-59.621498-92.296008 0-74.754005 87.930376-128.991163 209.104221-128.991163 64.265288 0 123.819957 16.682243 162.075685 45.029051 12.435821-0.700813 23.53504-0.700813 36.100908-0.025287 38.270178-28.321521 97.812203-45.003764 162.064847-45.003764 121.148558 0 209.116865 54.237158 209.116865 128.991163 0 36.274305-21.259203 68.762775-59.370434 92.137061 0.594246 0.886854 1.177655 1.773708 1.746614 2.685849 22.342935-16.257781 47.09356-20.968402 69.925981-13.241395 68.298577 23.215339 72.030226 142.378862 40.863909 242.717965-16.535939 53.231094-46.936419 94.92767-72.266841 122.694682 0.303445 3.85086 0.460586 7.67282 0.460586 11.534517 0 29.434152-7.710751 57.994095-22.910088 85.074743v0.384725C859.410058 738.526562 703.564024 896 512 896 320.421526 896 164.577299 738.526562 164.577299 544.97931v-1.231842c-14.881442-26.840421-22.435052-55.136655-22.435052-84.214983 0-3.504066 0.131854-7.037031 0.395562-10.647663-25.637479-27.913316-56.393784-69.94043-73.061577-123.595986-31.180767-100.375228-27.449117-219.50082 40.784435-242.689065z"  horiz-adv-x="1024" />

    
    <glyph glyph-name="QQ1" unicode="&#58961;" d="M118.356143 310.091306c15.504588 49.965449 46.221156 88.434311 69.25226 111.873621a25.603161 25.603161 0 0 1 6.997294 21.932923c-0.832667 5.411434-1.282416 10.569996-1.282415 15.596705 0 22.052133 6.415692 43.773729 19.008653 64.501903a26.00956 26.00956 0 0 1 3.690107 15.081933 72.375214 72.375214 0 0 0-0.236615 5.886469c0 165.305205 132.879953 299.787275 296.200123 299.787275 163.321976 0 296.20193-134.48207 296.20193-299.787275 0-1.784545-0.079474-3.504066-0.198684-5.252486a25.67541 25.67541 0 0 1 3.744293-15.067483c12.844027-20.916021 19.366285-42.821851 19.366285-65.125049 0-5.25068-0.464198-10.555547-1.388983-16.205401-1.361889-8.053933 1.242679-16.218045 6.957557-22.077421 22.742109-23.294812 53.140783-61.499966 68.536998-111.14752 27.40938-88.248271 17.805711-170.107943-8.34654-178.998155-13.55929-4.589604-29.618387 9.869183-39.62123 21.802875-5.422271 6.533096-13.624313 9.986587-22.303198 9.034709a25.548974 25.548974 0 0 1-19.922601-13.454528 328.796966 328.796966 0 0 0-31.775013-48.785988 25.659154 25.659154 0 0 1-4.62934-22.277911 25.619417 25.619417 0 0 1 14.935629-17.169922c35.745083-14.897698 56.220387-36.485633 56.220387-59.225936 0-42.899518-70.838121-77.783035-157.908737-77.783035-56.433521 0-108.976445 15.080126-137.086639 39.366553a25.548974 25.548974 0 0 1-16.734623 6.231457c-0.621339 0-1.284222-0.012644-1.905561-0.079473-17.673857-1.323959-31.484211-1.309509-48.654134 0.014449-7.049675 0.633983-13.586383-1.694234-18.705209-6.13934-28.137287-24.31352-80.682017-39.395453-137.140825-39.395452-87.057972 0-157.883449 34.883516-157.883449 77.783035 0 22.819777 20.583677 44.474542 56.446164 59.34334 7.409112 3.09586 12.939756 9.392341 14.962722 17.171728a25.509237 25.509237 0 0 1-4.57696 22.276105 330.870506 330.870506 0 0 0-31.762369 48.867268 25.606773 25.606773 0 0 1-19.974981 13.479815 25.485757 25.485757 0 0 1-22.315842-9.034709c-10.053418-12.038453-25.955374-26.786235-39.778371-21.985304-26.206438 8.848669-35.78482 90.683054-8.388083 178.969256v-0.009031z m-8.095476-227.491535c22.819777-7.712557 47.729349-3.02903 70.124665 13.347962 0.596052-0.899497 1.152368-1.784545 1.732164-2.658756-38.270178-23.347193-59.621498-55.942229-59.621498-92.296008 0-74.754005 87.930376-128.991163 209.104221-128.991163 64.265288 0 123.819957 16.682243 162.075685 45.029051 12.435821-0.700813 23.53504-0.700813 36.100908-0.025287 38.270178-28.321521 97.812203-45.003764 162.064847-45.003764 121.148558 0 209.116865 54.237158 209.116865 128.991163 0 36.274305-21.259203 68.762775-59.370434 92.137061 0.594246 0.886854 1.177655 1.773708 1.746614 2.685849 22.342935-16.257781 47.09356-20.968402 69.925981-13.241395 68.298577 23.215339 72.030226 142.378862 40.863909 242.717965-16.535939 53.231094-46.936419 94.92767-72.266841 122.694682 0.303445 3.85086 0.460586 7.67282 0.460586 11.534517 0 29.434152-7.710751 57.994095-22.910088 85.074743v0.384725C859.410058 738.526562 703.564024 896 512 896 320.421526 896 164.577299 738.526562 164.577299 544.97931v-1.231842c-14.881442-26.840421-22.435052-55.136655-22.435052-84.214983 0-3.504066 0.131854-7.037031 0.395562-10.647663-25.637479-27.913316-56.393784-69.94043-73.061577-123.595986-31.180767-100.375228-27.449117-219.50082 40.784435-242.689065z"  horiz-adv-x="1024" />

    
    <glyph glyph-name="fangda" unicode="&#58973;" d="M1005.259895-18.741785c-58.826762 58.841211-117.669779 117.682423-176.514603 176.525441 145.711336 193.251033 117.082758 466.313485-65.571185 625.137975C580.52197 941.744314 306.131946 932.174963 134.978202 761.02122c-171.157356-171.139294-180.710451-445.540155-21.902217-628.17423 158.826296-182.652137 431.892361-211.298778 625.15965-65.572991 58.843018-58.843018 117.667973-117.684229 176.527246-176.525441 24.98724-24.98724 65.506161-24.98724 90.495208 0 25.005302 24.98724 25.005302 65.522417 0.001806 90.509657z m-544.448733 69.947655c-212.082677 0-384.00587 171.919581-384.00587 383.986002 0 212.079064 171.923193 384.002258 384.00587 384.002258s384.00587-171.923193 384.005871-384.002258c0-212.066421-171.923193-383.986002-384.005871-383.986002zM294.407776 396.797065h128.006773v-128.006773c0-27.143866 11.252747-38.396613 38.396613-38.396614 27.158316 0 38.396613 11.252747 38.396614 38.396614v128.006773h128.006773c27.14206 0 38.396613 11.252747 38.396613 38.394807 0 27.158316-11.252747 38.411063-38.396613 38.411063h-128.006773v127.988711c0 27.160122-11.238297 38.394807-38.396614 38.394807-27.14206 0-38.396613-11.236491-38.396613-38.394807v-127.988711h-128.006773c-27.14206 0-38.396613-11.252747-38.396614-38.411063 0-27.14206 11.252747-38.394807 38.396614-38.394807z"  horiz-adv-x="1024" />

    
    <glyph glyph-name="suoxiao" unicode="&#58974;" d="M460.809934 51.20587c-212.080871 0-384.002258 171.919581-384.002258 383.986002 0 212.079064 171.921387 384.002258 384.002258 384.002258 212.064615 0 383.986002-171.923193 383.986002-384.002258-0.001806-212.066421-171.923193-383.986002-383.986002-383.986002z m367.914261 106.577786c145.725786 193.251033 117.080952 466.313485-65.571185 625.137975C580.517129 941.744314 306.116268 932.174963 134.97878 761.02122-36.174963 589.881925-45.744314 315.481065 113.078369 132.84699c158.82449-182.652137 431.885136-211.298778 625.136169-65.572991m0 0l176.527247-176.525441c24.985434-24.98724 65.520611-24.98724 90.507851 0 24.985434 24.985434 24.985434 65.520611 0 90.509657l-176.527247 176.525441M627.209708 473.602935H294.408354c-27.160122 0-38.396613-11.252747-38.396614-38.411063 0-27.14206 11.236491-38.394807 38.396614-38.394807H627.209708c27.143866 0 38.394807 11.252747 38.394808 38.394807 0 27.158316-11.250941 38.411063-38.394808 38.411063z"  horiz-adv-x="1024" />

    
    <glyph glyph-name="guanbi" unicode="&#58977;" d="M512 295.360839c88.631033-88.645482 177.280128-177.276515 265.91116-265.92561 24.481455-24.463393 64.165833-24.463393 88.649095 0 24.481455 24.481455 24.481455 64.165833 0 88.647289-88.649095 88.631033-177.280128 177.276515-265.929222 265.907548l265.929222 265.927416c24.481455 24.463393 24.481455 64.149577 0 88.631033-24.483262 24.481455-64.167639 24.481455-88.649095 0l-265.91116-265.909354c-88.649095 88.631033-177.281934 177.278321-265.912966 265.909354-24.481455 24.481455-64.169446 24.481455-88.649095 0-24.481455-24.481455-24.481455-64.167639 0-88.631033 88.649095-88.647289 177.280128-177.278321 265.912966-265.927416-88.632839-88.631033-177.263872-177.276515-265.912966-265.907548-24.481455-24.481455-24.481455-64.165833 0-88.647289 24.479649-24.463393 64.167639-24.463393 88.649095 0 88.631033 88.649095 177.263872 177.280128 265.912966 265.92561z"  horiz-adv-x="1024" />

    
    <glyph glyph-name="guanbi1" unicode="&#58978;" d="M947.20858 383.990969c0-240.348205-194.853149-435.183292-435.20858-435.183293-240.353624 0-435.206773 194.835087-435.206773 435.183293 0 240.351818 194.853149 435.203161 435.206773 435.203161 240.35543 0 435.20858-194.851343 435.20858-435.203161zM512 896C229.232731 896 0 666.770882 0 383.990969c0-282.761851 229.232731-511.990969 512-511.990969 282.769076 0 512 229.229118 512 511.990969C1024 666.770882 794.769076 896 512 896zM512 329.690593c54.303988-54.302182 108.60617-108.604364 162.926414-162.906546 19.189276-19.207338 35.09665-19.207338 54.302182 0 19.191082 19.189276 19.191082 35.094844 0 54.302182-54.302182 54.302182-108.622426 108.604364-162.924608 162.90474 54.302182 54.318438 108.622426 108.622426 162.924608 162.922802 19.191082 19.207338 19.191082 35.09665 0 54.302182-19.205532 19.207338-35.112906 19.207338-54.302182 0a1385493.35132 1385493.35132 0 0 1-162.926414-162.906546 1385471.844665 1385471.844665 0 0 1-162.924608 162.906546c-19.189276 19.207338-35.09665 19.207338-54.302182 0-19.191082-19.205532-19.191082-35.094844 0-54.302182 54.302182-54.300376 108.62062-108.604364 162.924608-162.922802-54.303988-54.300376-108.622426-108.602558-162.924608-162.90474-19.191082-19.207338-19.191082-35.112906 0-54.302182 19.205532-19.207338 35.112906-19.207338 54.302182 0a1539430.227506 1539430.227506 0 0 1 162.924608 162.906546z"  horiz-adv-x="1024" />

    
    <glyph glyph-name="shangyibi" unicode="&#58982;" d="M542.823135 430.399972c107.883682 82.340127 215.767365 164.680253 323.651047 247.013155 38.414676 29.325779 93.778915 1.92543 93.778915-46.390941v-494.044372c0-48.325402-55.364239-75.71672-93.778915-46.398166L542.823135 337.601834c-30.611807 23.363449-30.611807 69.432882 0 92.798138zM82.022232 430.399972c107.883682 82.340127 215.767365 164.680253 323.651047 247.013155 38.414676 29.325779 93.780721 1.92543 93.780721-46.390941v-494.044372c0-48.325402-55.366045-75.71672-93.780721-46.398166L82.022232 337.601834c-30.602776 23.363449-30.602776 69.432882 0 92.798138z"  horiz-adv-x="1024" />

    
    <glyph glyph-name="xiayibi" unicode="&#58983;" d="M476.502432 430.400793c-107.883492 82.339981-215.766984 164.679963-323.650476 247.012719-38.414608 29.325727-93.778749 1.925427-93.77875-46.390858v-494.043501c0-48.325316 55.364141-75.716586 93.77875-46.398084l323.650476 247.019944c30.611753 23.363408 30.611753 69.434566 0 92.79978zM937.302522 430.400793c-107.883492 82.339981-215.766984 164.679963-323.650476 247.012719-38.414608 29.325727-93.780555 1.925427-93.780555-46.390858v-494.043501c0-48.325316 55.365948-75.716586 93.780555-46.398084l323.650476 247.019944c30.600916 23.363408 30.600916 69.434566 0 92.79978z"  horiz-adv-x="1024" />

    
    <glyph glyph-name="cai" unicode="&#59023;" d="M0.324216 351.873734V796.143333c0 42.502075 34.439126 76.943007 76.950232 76.943007h69.252138v-597.416871l-69.252138-0.727905C34.779598 274.939758 0.324216 309.378884 0.324216 351.873734zM906.401774 194.194666c-101.960909 0.643013-203.927236 1.295057-305.889952 1.936264 14.372063-50.5578 21.64389-95.465755 21.64389-135.014667 0-89.738243-78.615563-177.607053-157.128172-166.202603-69.225045 10.057012-76.829216 69.88612-76.829216 144.858545v67.689761c0 86.871778-72.916951 160.897746-157.451485 169.040169l-11.119068-0.106567V873.084534h602.566394c56.362979 0 104.7768-40.090776 115.278141-95.47298 28.068601-148.097091 56.146233-296.181539 84.21664-444.269599 12.045656-63.672736-29.79715-125.053384-93.46808-137.09904a116.62016 116.62016 0 0 0-21.819092-2.048249z"  horiz-adv-x="1024" />

    
    <glyph glyph-name="cai1" unicode="&#59024;" d="M906.654644 270.993176c-136.004473 0.865178-271.999915 1.724937-407.995357 2.593726 9.329107-32.817144 18.652795-65.634287 27.980096-98.449624 1.580439-5.563146 3.090436-11.153386 4.531797-16.759881 1.370918-5.335563 2.665975-10.6928 3.879752-16.066294 1.154172-5.104367 2.237902-10.223184 3.23674-15.352838a464.441422 464.441422 0 0 0 2.611788-14.65022c0.736936-4.627526 1.405236-9.260471 1.988645-13.913284 0.538252-4.381881 1.015094-8.774599 1.38898-13.176348 0.175203-2.064505 0.339569-4.139848 0.469616-6.204353 0.139079-2.075343 0.25287-4.150685 0.346794-6.222415 0.086698-1.945295 0.155335-3.888784 0.189652-5.832273 0.027093-0.971744 0.043349-1.954326 0.052381-2.92607 0.018062-0.971744 0.025287-1.941682 0.018062-2.913427 0-0.72068-0.009031-1.443167-0.027093-2.162041s-0.05238-1.441361-0.086699-2.162041c-0.045155-0.711649-0.088505-1.43233-0.14811-2.151203-0.061411-0.711649-0.130048-1.43233-0.198683-2.145785a87.23844 87.23844 0 0 0-0.608695-4.502897c-0.234808-1.491935-0.511159-2.985676-0.825441-4.470385a90.635933 90.635933 0 0 0-1.085536-4.607658c-0.399174-1.528059-0.830859-3.048893-1.309507-4.557084-0.487678-1.553346-1.007869-3.099467-1.562377-4.634751a108.57166 108.57166 0 0 0-5.998444-13.550234 112.563398 112.563398 0 0 0-10.649451-16.622609 107.480706 107.480706 0 0 0-6.119461-7.221252 99.354539 99.354539 0 0 0-6.386781-6.283827 83.851784 83.851784 0 0 0-6.422905-5.205515 68.681374 68.681374 0 0 0-6.206159-4.071212 54.498964 54.498964 0 0 0-5.745574-2.924264c-1.649075-0.718874-3.332469-1.354662-5.059212-1.85679-1.407042-0.417236-2.828535-0.756805-4.269895-0.971744-1.172234-0.184234-2.351694-0.287188-3.532959-0.29622-0.52019-0.009031-1.040381 0.009031-1.553346 0.043349a21.445206 21.445206 0 0 0-1.493741 0.155335 48.731715 48.731715 0 0 0-2.463679 0.435298c-0.581602 0.111985-1.155978 0.251064-1.728549 0.408205a30.655103 30.655103 0 0 0-0.747774 1.882077c-0.397368 1.101792-0.745967 2.221646-1.058442 3.3415a82.446548 82.446548 0 0 0-1.206553 4.965289 118.487788 118.487788 0 0 0-1.128885 6.292857 170.559197 170.559197 0 0 0-0.971744 7.506635c-0.312475 2.871884-0.556315 5.74738-0.76403 8.628295a269.433282 269.433282 0 0 0-0.294413 4.685325 390.798372 390.798372 0 0 0-0.373887 8.341107c-0.121016 3.59437-0.198684 7.194159-0.25287 10.78853a853.169871 853.169871 0 0 0-0.077667 11.579653v67.689761c0 13.990951-1.266158 27.990934-3.782217 41.756108a237.13091 237.13091 0 0 1-10.770468 39.379127 242.979438 242.979438 0 0 1-7.708931 18.549841 249.393312 249.393312 0 0 1-9.121392 17.697307 253.66682 253.66682 0 0 1-22.04487 32.625685 258.397301 258.397301 0 0 1-26.549573 28.633946 260.05902 260.05902 0 0 1-14.782074 12.713957 260.745382 260.745382 0 0 1-15.717694 11.577846 256.103406 256.103406 0 0 1-32.468544 18.800905 251.768487 251.768487 0 0 1-25.622984 10.734344V796.286024H822.190552c1.224615 0 2.445617-0.05238 3.663007-0.164365a40.069102 40.069102 0 0 0 16.50701-5.207322 40.733789 40.733789 0 0 0 5.685969-3.948389 40.594711 40.594711 0 0 0 8.971477-10.450767 40.813263 40.813263 0 0 0 3.038055-6.256733c0.41543-1.110823 0.791123-2.239708 1.119854-3.375819 0.330538-1.181265 0.606889-2.369756 0.832666-3.567277 28.077632-148.08806 56.146233-296.174314 84.21664-444.262374a41.055296 41.055296 0 0 0 0.695393-9.244215 39.595873 39.595873 0 0 0-1.329375-8.704156 40.815069 40.815069 0 0 0-3.184359-8.183966 40.849387 40.849387 0 0 0-11.205766-13.470761c-1.154172-0.903108-2.360725-1.733968-3.610626-2.497997-1.249902-0.774867-2.552184-1.468454-3.877946-2.091598-1.363693-0.641207-2.759898-1.206552-4.183197-1.6852a41.423764 41.423764 0 0 0-5.747381-1.491935l-1.04038-0.182428c-0.686362-0.113792-1.379949-0.20049-2.07173-0.278157a35.203155 35.203155 0 0 0-4.015219-0.229389z m21.568029-74.748455c63.669124 12.045656 105.513736 73.426304 93.466273 137.09904-28.068601 148.086254-56.148039 296.172508-84.21664 444.269599-10.499535 55.382203-58.904325 95.47298-115.276335 95.47298H219.629577v-596.688965l11.117262 0.106566c84.53634-8.142423 157.45871-82.168391 157.45871-169.040169v-67.689761c0-74.972425 7.595139-134.801533 76.820184-144.858545 78.512609-11.40445 157.129979 76.46436 157.129979 166.202603 0 39.548912-7.271827 84.456867-21.64389 135.014667 101.962715-0.641207 203.92543-1.293251 305.889952-1.936264a116.295041 116.295041 0 0 1 21.820899 2.048249zM0.329634 351.873734V796.143333c0 42.502075 34.431901 76.943007 76.941201 76.943007h69.252139v-597.416871l-69.252139-0.727905C34.777791 274.939758 0.329634 309.378884 0.329634 351.873734zM51.658689 374.780169a25.287028 25.287028 0 0 1 0.391949-2.543153c0.337762-1.63282 0.832666-3.227708 1.473872-4.766604a26.10705 26.10705 0 0 1 5.537859-8.191191c1.181265-1.181265 2.474516-2.239708 3.845435-3.177135 1.370918-0.92117 2.837566-1.719518 4.356593-2.36253 1.53709-0.650238 3.133785-1.145141 4.764799-1.473873 0.823635-0.175203 1.665331-0.303444 2.508834-0.391949 0.814604-0.088505 1.640044-0.139079 2.465485-0.139078 6.101399 0.070442 12.211828 0.131854 18.322258 0.198683V796.282412h-18.053131c-0.903108 0-1.80441-0.041543-2.698487-0.139079-0.859759-0.086698-1.710487-0.207715-2.552184-0.381111a25.462231 25.462231 0 0 1-9.121392-3.845435 26.199167 26.199167 0 0 1-3.836404-3.168103 25.818055 25.818055 0 0 1-3.168103-3.845435 25.494743 25.494743 0 0 1-2.369756-4.347562 26.029383 26.029383 0 0 1-1.473872-4.755768c-0.173397-0.850728-0.303444-1.701456-0.391949-2.552183-0.084892-0.903108-0.130048-1.806216-0.130048-2.700294v-393.077817c-0.001806-0.894077 0.043349-1.797185 0.128242-2.689456z"  horiz-adv-x="1024" />

    
    <glyph glyph-name="fenxiang" unicode="&#59028;" d="M862.884605 164.576331c-45.242105 0-85.186578-21.002683-112.028758-53.252674-104.182555 58.944062-208.356079 117.888124-312.54044 176.821348a218.342648 218.342648 0 0 1 22.277872 95.855898c0 33.055564-7.533728 64.290462-20.62699 92.418668 77.952682 50.221844 155.916201 100.441881 233.870689 150.676368a145.189083 145.189083 0 0 1 79.323601-23.668658c80.792054 0 146.294487 65.500627 146.294487 146.281844C899.456872 830.497567 833.954439 896 753.160579 896s-146.281844-65.502433-146.281844-146.294487c0-24.56996 6.619783-47.360797 17.334257-67.686149-75.198202-48.442721-150.407242-96.887247-225.60725-145.328162a218.667767 218.667767 0 0 1-157.437035 66.734273c-121.188081 0.032512-219.45889-98.193142-219.478759-219.381223-0.021675-121.189887 98.193142-219.44444 219.381223-219.467921a219.401091 219.401091 0 0 1 154.610307 63.669124c107.869042-61.021211 215.750728-122.044228 323.617964-183.076276a148.030261 148.030261 0 0 1-2.709324-26.872885c0-80.790248 65.500627-146.294487 146.294487-146.294488 80.781217 0 146.281844 65.504239 146.281844 146.294488 0.001806 80.777604-65.500627 146.280038-146.281844 146.280037zM753.160579 822.848241c40.408671-0.010837 73.164403-32.777407 73.142728-73.173434-0.010837-40.406864-32.777407-73.151759-73.17524-73.140922-40.406864 0.009031-73.153565 32.775601-73.142728 73.171628 0.012644 40.406864 32.779213 73.164403 73.17524 73.142728z m109.724026-877.705513c-40.406864 0.021675-73.164403 32.786438-73.151759 73.182465 0.009031 40.406864 32.786438 73.151759 73.184271 73.142728 40.406864-0.010837 73.151759-32.777407 73.140922-73.173434-0.010837-40.406864-32.775601-73.162597-73.173434-73.151759z"  horiz-adv-x="1024" />

    
    <glyph glyph-name="fenxiang1" unicode="&#59029;" d="M862.875574 164.569106c-45.240299 0-85.175741-20.990039-112.019727-53.243643-104.182555 58.945868-208.354272 117.877287-312.538634 176.821349a218.301105 218.301105 0 0 1 22.276066 95.85951c0 33.05737-7.531922 64.290462-20.625184 92.418668l233.87069 150.667337a145.21437 145.21437 0 0 1 79.3236-23.659627c80.792054 0 146.281844 65.491596 146.281844 146.28365C899.444229 830.508404 833.954439 896 753.160579 896s-146.28365-65.491596-146.28365-146.28365c0-24.56996 6.621589-47.360797 17.33787-67.689761-75.210846-48.442721-150.409048-96.885441-225.609057-145.340805a218.673186 218.673186 0 0 1-157.438842 66.74511c-121.198918 0.021675-219.45889-98.193142-219.478758-219.383029-0.021675-121.189887 98.194948-219.448053 219.383029-219.480565a219.424572 219.424572 0 0 1 154.597663 63.67093c107.881686-61.023017 215.750728-122.046034 323.630608-183.069051a147.990524 147.990524 0 0 1-2.709324-26.885529c0-80.790248 65.502433-146.28365 146.28365-146.28365 80.792054 0 146.281844 65.493402 146.281844 146.28365 0.001806 80.79386-65.487984 146.285456-146.280038 146.285456z"  horiz-adv-x="1024" />

    
    <glyph glyph-name="shoucang" unicode="&#59032;" d="M272.230208 55.692195l76.540221 235.543246c-66.788459 48.527613-133.576919 97.057032-200.363572 145.575614-20.070675 14.58339-9.751762 46.311385 15.043976 46.311385h247.671988c25.501968 78.52164 51.014773 157.030637 76.529384 235.552277 7.661969 23.583766 41.026397 23.583766 48.690172 0 25.523642-78.52164 51.023804-157.030637 76.538414-235.552277h247.670183c24.797543 0 35.103813-31.727995 15.045781-46.311385-66.788459-48.518582-133.576919-97.048001-200.367184-145.575614 25.50558-78.512609 51.016579-157.032443 76.529384-235.543246 7.661969-23.585572-19.330127-43.204693-39.389965-28.619497-66.788459 48.516775-133.576919 97.046194-200.374409 145.57742-66.788459-48.529419-133.575112-97.058838-200.361765-145.57742-20.061644-14.585196-47.062771 5.033925-39.402608 28.619497zM39.519109 420.995825c72.991006-53.028704 145.972981-106.059214 218.963987-159.087917-27.880754-85.807917-55.750672-171.61764-83.631426-257.412913-22.993133-70.763941 57.99038-129.59963 118.177118-85.871134 72.992812 53.028704 145.983818 106.059214 218.965793 159.087917l218.974824-159.087917c60.188545-43.728496 141.173864 15.107193 118.178925 85.871134-27.878948 85.795273-55.761509 171.604996-83.631426 257.412913 72.981975 53.028704 145.972981 106.059214 218.965793 159.087917 60.186739 43.728496 29.251673 138.93235-45.144569 138.93235H668.682037c-27.878948 85.797079-55.757896 171.60319-83.642263 257.411106-22.993133 70.751298-123.095445 70.751298-146.077742 0l-83.644069-257.411106H84.663679c-74.398048 0-105.333115-95.203854-45.14457-138.93235z"  horiz-adv-x="1024" />

    
    <glyph glyph-name="shoucang1" unicode="&#59033;" d="M84.661872 559.928175h270.654285c27.882561 85.797079 55.761509 171.60319 83.644069 257.411106 22.982296 70.751298 123.084608 70.751298 146.077742 0 27.884367-85.807917 55.763315-171.614027 83.642263-257.411106h270.65609c74.396242 0 105.331308-95.203854 45.14457-138.93235-72.991006-53.028704-145.982012-106.059214-218.965793-159.087917 27.869917-85.807917 55.752478-171.61764 83.631426-257.412913 22.994939-70.763941-57.988574-129.59963-118.178925-85.871134L511.992775 77.711778c-72.980169-53.028704-145.972981-106.059214-218.965793-159.087917-60.186739-43.728496-141.172058 15.107193-118.177118 85.871134 27.880754 85.795273 55.750672 171.604996 83.631426 257.412913-72.991006 53.028704-145.972981 106.059214-218.963987 159.087917-60.186739 43.728496-29.251673 138.93235 45.144569 138.93235z"  horiz-adv-x="1024" />

    
    <glyph glyph-name="xin" unicode="&#59034;" d="M496.782628-47.305482a120.340966 120.340966 0 0 0-62.13384 28.736901L105.65733 270.393512a294.807008 294.807008 0 0 0-43.853125 46.473945 296.387448 296.387448 0 0 0-17.653957 26.188329 294.021304 294.021304 0 0 0-14.698988 27.853662 291.790627 291.790627 0 0 0-11.628421 29.275153 293.033304 293.033304 0 0 0-15.296846 93.784168c0 10.047981 0.498516 20.099575 1.511803 30.096982a293.739534 293.739534 0 0 0 11.691638 57.33111 290.006085 290.006085 0 0 0 9.885422 26.981259 292.079622 292.079622 0 0 0 27.09505 49.922012 294.657092 294.657092 0 0 0 35.903968 43.517169 295.935893 295.935893 0 0 0 20.878054 18.983333 296.165283 296.165283 0 0 0 22.630083 16.920634 293.723278 293.723278 0 0 0 24.234004 14.727887 292.424609 292.424609 0 0 0 52.669267 22.252585 291.5793 291.5793 0 0 0 57.329304 11.691638 296.833583 296.833583 0 0 0 30.082532 1.526252 293.48847 293.48847 0 0 0 58.624362-5.904521 295.448215 295.448215 0 0 0 28.332309-7.248345 294.210957 294.210957 0 0 0 78.639044-37.928736 292.159095 292.159095 0 0 0 23.417594-17.751494 290.732184 290.732184 0 0 0 21.687239-20.162792c1.750224-1.800798 3.507672-3.599789 5.259702-5.406005 1.757448 1.806216 3.507672 3.607014 5.266926 5.406005a290.759278 290.759278 0 0 0 21.687239 20.162792 293.177801 293.177801 0 0 0 48.36686 32.999572 291.873713 291.873713 0 0 0 26.287671 12.676026 295.06891 295.06891 0 0 0 27.403914 10.004632 294.900932 294.900932 0 0 0 28.332308 7.248345 293.452346 293.452346 0 0 0 58.624362 5.904521c10.03895 0 20.085125-0.505741 30.075307-1.526252a291.721991 291.721991 0 0 0 110.000377-33.944223 292.984536 292.984536 0 0 0 24.232198-14.727887 294.163995 294.163995 0 0 0 43.517169-35.903967 294.648061 294.648061 0 0 0 50.62463-67.749367 290.374554 290.374554 0 0 0 12.374387-25.689814 290.132521 290.132521 0 0 0 9.876391-26.981259 292.142839 292.142839 0 0 0 11.693444-57.33111c1.018706-9.995601 1.517222-20.049001 1.517222-30.096982a293.311461 293.311461 0 0 0-6.854591-63.349424 293.871388 293.871388 0 0 0-20.070675-59.709897 295.728179 295.728179 0 0 0-14.702601-27.853662 294.855776 294.855776 0 0 0-17.65757-26.188329 294.183864 294.183864 0 0 0-43.847706-46.473945L590.151366-18.568581a121.417471 121.417471 0 0 0-13.06075-9.997407 120.689565 120.689565 0 0 0-13.974695-7.963607 120.570355 120.570355 0 0 0-35.103814-10.775887c-5.165779-0.753192-10.383937-1.174041-15.612933-1.251707a120.877412 120.877412 0 0 0-15.616546 1.251707z m15.61474 75.573896a44.66231 44.66231 0 0 1 5.940645 0.65385 43.233593 43.233593 0 0 1 7.797436 2.160235 39.014272 39.014272 0 0 1 4.141654 1.82789c1.081924 0.541865 2.136754 1.130691 3.162684 1.764674a45.061484 45.061484 0 0 1 6.030956 4.464966l329.415919 289.330561a235.749155 235.749155 0 0 1 9.256858 8.31582 215.658611 215.658611 0 0 1 23.58196 26.397851 216.420834 216.420834 0 0 1 32.464931 61.492633 216.357617 216.357617 0 0 1 6.236865 22.462105 216.38471 216.38471 0 0 1 3.789442 23.121375c0.852534 7.860653 1.264351 15.768268 1.264351 23.677689 0 7.466898-0.372081 14.939215-1.123466 22.369989a216.514758 216.514758 0 0 1-3.290926 21.539129 214.103459 214.103459 0 0 1-12.605584 40.619998 216.460571 216.460571 0 0 1-20.000233 36.839587 218.534107 218.534107 0 0 1-26.57486 32.212061 219.697311 219.697311 0 0 1-32.199417 26.573054 220.54262 220.54262 0 0 1-17.906828 10.877034 214.63268 214.63268 0 0 1-59.552757 21.730588 214.392453 214.392453 0 0 1-21.548161 3.28912 216.944637 216.944637 0 0 1-22.299546 1.125273c-7.304339 0-14.610483-0.366662-21.869666-1.096374a214.251569 214.251569 0 0 1-21.450625-3.262026 217.258919 217.258919 0 0 1-20.926822-5.350013 218.205376 218.205376 0 0 1-39.666315-16.752656 219.948375 219.948375 0 0 1-18.432437-11.270789 217.060235 217.060235 0 0 1-17.296327-13.104099 217.522626 217.522626 0 0 1-16.019333-14.895866c-20.1068-20.668533-40.213599-41.344291-60.318592-62.020048a244185.376774 244185.376774 0 0 1-60.313174 62.020048 215.963862 215.963862 0 0 1-33.322884 27.999965 218.113259 218.113259 0 0 1-18.427019 11.270789 217.963343 217.963343 0 0 1-39.662703 16.752656 217.600294 217.600294 0 0 1-20.930434 5.350013 214.659773 214.659773 0 0 1-21.448818 3.262026 219.061522 219.061522 0 0 1-21.869667 1.096374c-7.44703 0.007225-14.892253-0.366662-22.301352-1.125273a214.988505 214.988505 0 0 1-21.548161-3.28912 213.129908 213.129908 0 0 1-20.738975-5.330144 215.228732 215.228732 0 0 1-38.813781-16.400444 219.27285 219.27285 0 0 1-17.905022-10.877034 218.629837 218.629837 0 0 1-16.740013-12.52611 219.429991 219.429991 0 0 1-15.46663-14.046944 219.446247 219.446247 0 0 1-26.565829-32.212061 216.160739 216.160739 0 0 1-27.277478-56.72061 215.792271 215.792271 0 0 1-5.337369-20.738975 215.436446 215.436446 0 0 1-3.281895-21.539129 221.911732 221.911732 0 0 1-1.125273-22.369989c-0.007225-7.907615 0.41543-15.817036 1.266158-23.677689a215.90245 215.90245 0 0 1 10.0245-45.58348A216.601456 216.601456 0 0 1 123.07648 363.184261a215.310011 215.310011 0 0 1 23.578347-26.397851 236.094142 236.094142 0 0 1 9.258665-8.31582l329.414112-289.330561c0.957295-0.836278 1.939876-1.636432 2.958583-2.389624a41.806682 41.806682 0 0 1 6.236864-3.838209c1.342019-0.68275 2.72558-1.293251 4.132623-1.827891 0.745967-0.28177 1.497353-0.541865 2.255964-0.789317a44.245074 44.245074 0 0 1 11.48573-2.026574z"  horiz-adv-x="1024" />

    
    <glyph glyph-name="xin1" unicode="&#59035;" d="M512.397368-48.557189a120.667891 120.667891 0 0 1 30.982027 4.528184 120.734721 120.734721 0 0 1 19.734719 7.49941 120.651635 120.651635 0 0 1 13.974696 7.963607 121.650472 121.650472 0 0 1 13.06075 9.997407l328.993263 288.962093a294.183864 294.183864 0 0 1 43.847707 46.473945 294.465633 294.465633 0 0 1 17.65757 26.188329 296.150833 296.150833 0 0 1 14.702601 27.853662 293.526401 293.526401 0 0 1 25.20936 91.051362c1.154172 10.627777 1.730355 21.315158 1.715906 32.007959 0 10.047981-0.496709 20.099575-1.517222 30.096982a292.142839 292.142839 0 0 1-11.693444 57.33111 289.428096 289.428096 0 0 1-9.876391 26.981259 293.206701 293.206701 0 0 1-27.09505 49.922012 294.635418 294.635418 0 0 1-35.903967 43.517169 294.163995 294.163995 0 0 1-43.517169 35.903967 292.491439 292.491439 0 0 1-76.901464 36.980472 291.721991 291.721991 0 0 1-57.331111 11.691638 296.613225 296.613225 0 0 1-30.075307 1.526252 293.452346 293.452346 0 0 1-58.624362-5.904521 295.038204 295.038204 0 0 1-28.332309-7.248345 294.738372 294.738372 0 0 1-27.403913-10.004632 292.110327 292.110327 0 0 1-26.287672-12.676026A293.358423 293.358423 0 0 1 517.662488 698.923742c-1.759255-1.800798-3.507672-3.599789-5.266927-5.406005-1.750224 1.806216-3.507672 3.607014-5.259701 5.406005a291.470927 291.470927 0 0 1-21.687239 20.162792 293.461377 293.461377 0 0 1-48.36686 32.999572 293.734116 293.734116 0 0 1-82.022087 29.929003 293.56975 293.56975 0 0 1-58.624362 5.904521c-10.040756 0-20.086931-0.505741-30.082532-1.526252a291.5793 291.5793 0 0 1-57.329304-11.691638 292.039885 292.039885 0 0 1-52.669267-22.252585 294.219988 294.219988 0 0 1-24.234004-14.727887 296.165283 296.165283 0 0 1-22.630084-16.920634 295.496983 295.496983 0 0 1-20.878054-18.983333 294.657092 294.657092 0 0 1-35.903967-43.517169 293.177801 293.177801 0 0 1-14.727887-24.232198 292.345135 292.345135 0 0 1-12.367163-25.689814 290.195738 290.195738 0 0 1-17.119318-55.136558 293.739534 293.739534 0 0 1-4.457742-29.175811c-1.013287-9.995601-1.511803-20.049001-1.511803-30.096982a293.033304 293.033304 0 0 1 15.296846-93.784168 292.133808 292.133808 0 0 1 11.62842-29.275153 294.43854 294.43854 0 0 1 14.698988-27.853662 296.387448 296.387448 0 0 1 17.653958-26.188329 294.807008 294.807008 0 0 1 43.853125-46.473945l328.991458-288.962093a121.775101 121.775101 0 0 1 13.06075-9.997407 120.1766 120.1766 0 0 1 33.71122-15.463017 121.301873 121.301873 0 0 1 15.36187-3.276477c5.17481-0.753192 10.392968-1.174041 15.616546-1.251707z"  horiz-adv-x="1024" />

    
    <glyph glyph-name="zan" unicode="&#59041;" d="M906.408999 573.803528c-101.966327-0.643013-203.920011-1.295057-305.886339-1.939876 14.357613 50.554187 21.634859 95.47298 21.634858 135.021891 0 89.729212-78.61737 177.594409-157.128172 166.193572-69.230464-10.051594-76.818378-69.884314-76.818379-144.847708v-67.689761c0-86.877197-72.925982-160.899552-157.471353-169.041975l-11.111843 0.095729v-596.676322h602.570006c56.37201 0 104.784025 40.085358 115.28356 95.47298 28.07402 148.082641 56.137202 296.177926 84.211222 444.262374 12.04385 63.669124-29.798956 125.046159-93.457243 137.100847a116.257111 116.257111 0 0 1-21.826317 2.048249zM0.333247 416.129878v-444.275017c0-42.507494 34.426482-76.935782 76.935782-76.935783h69.262976V492.334143c-23.090669 0.236614-46.172307 0.48226-69.262976 0.727905C34.78321 493.063854 0.333247 458.615698 0.333247 416.129878z"  horiz-adv-x="1024" />

    
    <glyph glyph-name="zan1" unicode="&#59042;" d="M928.237122 571.757085c63.658286-12.054687 105.501093-73.431723 93.457243-137.100846-28.07402-148.086254-56.137202-296.179733-84.211222-444.262374-10.499535-55.387622-58.91155-95.47298-115.28356-95.47298H219.629577V491.597207l11.111843-0.09573c84.543565 8.142423 157.471354 82.164778 157.471354 169.041975V728.233214c0 74.963394 7.587915 134.796115 76.818378 144.847708 78.508997 11.400837 157.128173-76.46436 157.128173-166.193572 0-39.548912-7.275439-84.467704-21.634859-135.021892 101.964521 0.643013 203.918205 1.296863 305.886339 1.939876 7.329626-0.001806 14.626739-0.675525 21.826317-2.048249z m-21.580672-74.748454c-135.997248-0.866984-271.994497-1.724937-407.991745-2.593727 9.323688 32.820756 18.654602 65.628868 27.976484 98.440593a654.540267 654.540267 0 0 1 4.533603 16.768912c1.370918 5.335563 2.667781 10.6928 3.877946 16.062682 1.157785 5.098949 2.239708 10.223184 3.234934 15.363675a415.095594 415.095594 0 0 1 4.59682 28.55628 336.89546 336.89546 0 0 1 1.865822 19.386119c0.139079 2.068118 0.256483 4.145266 0.352212 6.213384 0.075861 1.950714 0.149916 3.888784 0.193265 5.839497 0.019868 0.975357 0.032512 1.939876 0.05238 2.915233 0.010837 0.975357 0.010837 1.950714 0.010837 2.926071 0 0.717068-0.010837 1.435942-0.032511 2.153009a50.956974 50.956974 0 0 1-0.086699 2.163848 65.94315 65.94315 0 0 1-0.151722 2.153009 46.311385 46.311385 0 0 1-0.20049 2.143979 71.898245 71.898245 0 0 1-0.60147 4.511928 97.378538 97.378538 0 0 1-3.215065 13.627902 106.40962 106.40962 0 0 1-3.343306 9.182804 105.531798 105.531798 0 0 1-4.222934 9.000375 113.605585 113.605585 0 0 1-5.003219 8.604815 106.469225 106.469225 0 0 1-5.648038 8.014181 102.412463 102.412463 0 0 1-6.117655 7.223059 95.653602 95.653602 0 0 1-6.386781 6.280214 84.75128 84.75128 0 0 1-6.419292 5.218159 69.327999 69.327999 0 0 1-6.213384 4.060374 54.303892 54.303892 0 0 1-5.743768 2.926071 44.5142 44.5142 0 0 1-5.057406 1.864015 32.334884 32.334884 0 0 1-4.275314 0.975357 25.901141 25.901141 0 0 1-3.525734 0.288994 18.604028 18.604028 0 0 1-1.553346-0.043349 17.668408 17.668408 0 0 1-1.499159-0.160753c-0.406399-0.054186-0.827247-0.117404-1.233646-0.191459-0.406399-0.075861-0.812797-0.149916-1.221002-0.236615a28.953647 28.953647 0 0 1-1.735774-0.406398c-0.26732-0.621338-0.514772-1.253514-0.738742-1.88569-0.397368-1.103598-0.751386-2.218034-1.062056-3.343306a78.438554 78.438554 0 0 1-1.208358-4.961676 123.588543 123.588543 0 0 1-1.127079-6.300083 160.007281 160.007281 0 0 1-0.975357-7.501216c-0.310669-2.871884-0.558121-5.741962-0.760417-8.624683-0.108373-1.564183-0.21494-3.128367-0.299832-4.69255a444.126908 444.126908 0 0 1-0.364856-8.335688 513.980516 513.980516 0 0 1-0.258289-10.792142 852.109622 852.109622 0 0 1-0.074055-11.572428v-67.689761c0-13.992757-1.275189-27.987321-3.784023-41.756108a238.070143 238.070143 0 0 0-10.766855-39.388158 248.192179 248.192179 0 0 0-7.71435-18.549841 253.823961 253.823961 0 0 0-9.117779-17.690082 253.114118 253.114118 0 0 0-22.043064-32.627491 260.086113 260.086113 0 0 0-41.337065-41.349709 259.123399 259.123399 0 0 0-15.708663-11.572428 257.22326 257.22326 0 0 0-32.477575-18.806324 254.26829 254.26829 0 0 0-25.632015-10.73615v-456.347767h525.775108c1.221002 0 2.452842 0.05238 3.663007 0.158947a40.446601 40.446601 0 0 1 22.192979 9.161129 40.495369 40.495369 0 0 1 4.938195 4.844272 42.33771 42.33771 0 0 1 4.040506 5.606496 39.953504 39.953504 0 0 1 4.145266 9.643388c0.344987 1.177653 0.623145 2.36795 0.848922 3.567277 28.063182 148.084448 56.135396 296.168895 84.211222 444.253343 0.287188 1.553346 0.500322 3.128367 0.608694 4.703388 0.117404 1.509997 0.139079 3.0218 0.086699 4.542634a40.545943 40.545943 0 0 1-1.325763 8.700543 40.901768 40.901768 0 0 1-8.081012 15.546104 41.118514 41.118514 0 0 1-6.312725 6.119461 39.682572 39.682572 0 0 1-3.608821 2.485353 39.23463 39.23463 0 0 1-8.068368 3.784023 42.399121 42.399121 0 0 1-4.542634 1.253514c-0.397368 0.084892-0.794735 0.160753-1.192102 0.236615a42.364803 42.364803 0 0 1-3.124755 0.460585 36.422351 36.422351 0 0 1-4.018831 0.223971zM77.269029 493.063854c23.090669-0.245645 46.172307-0.491291 69.262976-0.727905v-597.415064H77.269029c-42.5093 0-76.935782 34.428288-76.935782 76.935782v444.275017c0 42.484013 34.449963 76.93217 76.935782 76.93217z m-25.738582-102.533479v-393.076011c0-0.899496 0.041543-1.798991 0.139079-2.700293 0.086698-0.857953 0.21494-1.703262 0.38653-2.550378 0.332344-1.625595 0.823635-3.224096 1.477485-4.757573a25.686202 25.686202 0 0 1 5.530634-8.187579 25.890304 25.890304 0 0 1 8.185773-5.539665 25.380951 25.380951 0 0 1 7.316982-1.864015c0.901302-0.095729 1.800798-0.137272 2.702099-0.137273h18.065775v444.347266c-6.106817 0.075861-12.226278 0.139079-18.334901 0.204103a26.067313 26.067313 0 0 1-4.970707-0.523803c-1.629207-0.343181-3.225902-0.836278-4.757574-1.479291a26.713939 26.713939 0 0 1-4.362012-2.367949 25.90656 25.90656 0 0 1-3.834597-3.171716 25.951715 25.951715 0 0 1-3.182553-3.845435c-0.92117-1.372724-1.715905-2.828535-2.358919-4.351175a24.725295 24.725295 0 0 1-1.477485-4.757573c-0.171591-0.847115-0.299832-1.694231-0.38653-2.550378a24.727101 24.727101 0 0 1-0.139079-2.691262z"  horiz-adv-x="1024" />

    
    <glyph glyph-name="shengyin" unicode="&#58880;" d="M840.087968 727.994612c-10.785066 11.281951-28.760176 11.697413-40.043612 0.939395-11.311067-10.797927-11.725523-28.67611-0.93841-39.959084 70.7942-73.998341 111.389397-182.550663 111.389397-297.807686 0-115.270327-40.595197-223.823672-111.417027-297.835316-10.786089-11.281951-10.372657-29.160133 0.93841-39.945781 5.477983-5.211698 12.528851-7.810896 19.552089-7.810896 7.466348 0 14.906089 2.929726 20.4905 8.751315 80.749331 84.398202 127.071184 207.1622 127.071184 336.840678C967.130498 520.818085 920.809668 643.58413 840.087968 727.994612zM745.179593 641.550821c-11.171892 10.867512-29.091741 10.674107-40.043612-0.497327-10.922195-11.18576-10.701151-29.063943 0.498371-39.959084 52.127307-50.770314 82.048983-127.314641 82.048983-209.954803 0-82.640162-29.921676-159.142533-82.048983-209.91387-11.199522-10.907421-11.420565-28.785603-0.498371-39.95806 5.558827-5.682419 12.914653-8.53028 20.271503-8.53028 7.13376 0 14.268543 2.681062 19.772109 8.032954 62.995264 61.362556 99.13992 152.615886 99.13992 250.369258C844.319512 488.934934 808.173833 580.174961 745.179593 641.550821zM648.721868 555.592077c-12.112348 9.886161-29.949306 7.977695-39.849176-4.050246-9.872239-12.085246-8.046586-29.892821 4.065762-39.765679 32.52098-26.435069 51.933894-71.538313 51.933894-120.635521 0-48.393173-18.997435-93.120864-50.800024-119.641891-12.00285-10.008958-13.57983-27.831882-3.567392-39.819914 5.614088-6.662747 13.660674-10.120498 21.764568-10.120498 6.387739 0 12.831762 2.156106 18.141916 6.566556 44.521784 37.139875 71.098134 98.099249 71.098134 163.014724C721.507504 457.065086 694.295654 518.509507 648.721868 555.592077zM472.289488 755.467313c-9.568305 4.729721-21.100415 3.76065-29.645372-2.641153L210.350231 579.511859 89.279961 579.511859c-15.651086 0-28.317066-12.637832-28.317066-28.247344l0-320.235488c0-15.623839 12.66598-28.260647 28.317066-28.260647l121.07027 0 232.293885-173.300998c4.976542-3.733021 10.949825-5.626137 16.950738-5.626137 4.314436 0 8.684132 0.994654 12.69361 2.970658 9.568305 4.798283 15.624479 14.57495 15.624479 25.275663L487.912943 730.192673C487.912943 740.907713 481.856769 750.670054 472.289488 755.467313zM431.277788 108.485039 236.731122 253.64921c-4.894674 3.63683-10.840327 5.628184-16.951762 5.628184l-102.181311 0L117.59805 523.002844l102.181311 0c6.112458 0 12.057088 1.991354 16.951762 5.627161l194.546666 145.164171L431.277788 108.485039z"  horiz-adv-x="1024" />

    
    <glyph glyph-name="jingyin" unicode="&#58881;" d="M825.757001 400.280802 952.133331 526.924153c10.846467 10.901281 10.846467 28.520567-0.026607 39.394219-10.875121 10.832719-28.479778 10.847046-39.354899-0.027629l-126.485829-126.740566L659.782215 566.290743c-10.875121 10.873652-28.508432 10.860349-39.383553 0.027629-10.846467-10.873652-10.846467-28.492938-0.025584-39.394219l126.402937-126.643352-126.402937-126.603443c-10.81986-10.901281-10.81986-28.520567 0.025584-39.393195 5.451375-5.41022 12.565692-8.135284 19.677961-8.135284 7.1399 0 14.280823 2.725064 19.705592 8.162914l126.484805 126.716007 126.485829-126.716007c5.423745-5.436826 12.563645-8.162914 19.704568-8.162914 7.113293 0 14.225562 2.725064 19.650331 8.135284 10.873074 10.872628 10.873074 28.491914 0.026607 39.393195L825.757001 400.280802zM473.854187 740.981391c-9.48439 4.673439-20.712566 3.665483-29.133698-2.616594l-228.196399-170.792874L97.614108 567.571922c-15.398319 0-27.852466-12.45466-27.852466-27.839045l0-315.600935c0-15.383362 12.454147-27.839045 27.852466-27.839045l118.908959 0 228.196399-170.791851c4.905931-3.679809 10.764599-5.54632 16.651921-5.54632 4.250988 0 8.503 0.981351 12.481777 2.929726 9.402523 4.740978 15.344082 14.361079 15.344082 24.908296L489.197245 716.072071C489.198269 726.620311 483.256709 736.23939 473.854187 740.981391zM433.545527 103.402277 242.441405 246.437971c-4.797456 3.583618-10.656124 5.54632-16.651921 5.54632l-100.376124 0L125.41336 511.880529l100.376124 0c5.995797 0 11.854465 1.961678 16.651921 5.54632l191.104123 143.035694L433.545527 103.402277z"  horiz-adv-x="1024" />

    
    <glyph glyph-name="bofang" unicode="&#58882;" d="M839.164908 338.421942 240.50216-45.694459c-32.559867-21.048385-76.198502-11.69332-76.198502 19.264762L164.303659 793.993768c0 35.897581 40.684228 38.282908 76.198502 19.23304L839.164908 429.157479C863.815318 404.092617 863.815318 363.471454 839.164908 338.421942zM227.422748 30.839635l568.042125 352.942401L227.422748 736.709087C227.422748 680.378128 227.422748 45.61106 227.422748 30.839635z"  horiz-adv-x="1024" />

    
    <glyph glyph-name="zanting" unicode="&#58883;" d="M754.375399-40.139953 633.187444-40.139953c-33.46246 0-60.594489 27.130917-60.594489 60.592007L572.592954 747.54897c0 33.461089 27.132029 60.590983 60.594489 60.590983l121.187955 0c33.46246 0 60.593466-27.129894 60.593466-60.590983l0-727.096916C814.968865-13.010059 787.837859-40.139953 754.375399-40.139953zM754.375399 717.252966c0 16.731056-13.550153 30.29498-30.296221 30.29498l-60.594489 0c-16.746069 0-30.296221-13.564947-30.296221-30.29498l0-666.505933c0-16.745383 13.550153-30.29498 30.296221-30.29498l60.594489 0c16.746069 0 30.296221 13.549597 30.296221 30.29498L754.375399 717.252966zM390.812556-40.139953 269.624601-40.139953c-33.46246 0-60.593466 27.130917-60.593466 60.592007L209.031135 747.54897c0 33.461089 27.131006 60.590983 60.593466 60.590983l121.187955 0c33.46246 0 60.593466-27.129894 60.593466-60.590983l0-727.096916C451.406022-13.010059 424.275017-40.139953 390.812556-40.139953zM390.812556 717.252966c0 16.731056-13.551176 30.29498-30.296221 30.29498l-60.594489 0c-16.746069 0-30.296221-13.564947-30.296221-30.29498l0-666.505933c0-16.745383 13.551176-30.29498 30.296221-30.29498l60.594489 0c16.746069 0 30.296221 13.549597 30.296221 30.29498L390.812556 717.252966z"  horiz-adv-x="1024" />

    
    <glyph glyph-name="shangyishou" unicode="&#58884;" d="M76.442058 423.876196l479.972785 344.375282c31.816917 17.080004 68.268577 21.123087 68.295184-44.618197l0-149.899008 271.113573 194.517205c31.815893 17.080004 69.179357 17.590634 68.295184-46.384423l0-676.471912c-0.91078-57.779961-39.127716-66.168002-68.295184-47.295166L624.711051 192.632531l0-148.120502c-0.026607-56.012711-39.127716-65.284889-68.295184-46.411029L76.442058 342.518237C54.339786 364.978784 54.339786 401.402345 76.442058 423.876196zM907.552193 699.640844 568.143437 462.299297c0 0 0 186.833199 0 237.341546L115.598428 383.190565l452.545009-316.465628c0 13.244652 0 237.328243 0 237.328243l339.408757-237.328243C907.552193 79.970612 907.552193 649.132496 907.552193 699.640844z"  horiz-adv-x="1024" />

    
    <glyph glyph-name="kuaijin" unicode="&#58885;" d="M947.557942 342.518237 467.585156-1.899c-29.166445-18.872836-68.267554-9.601682-68.295184 46.411029L399.289972 192.632531 128.175376-1.899c-29.166445-18.872836-67.384404-10.484795-68.295184 47.295166L59.880192 721.867054c-0.883149 63.975057 36.479291 63.464427 68.295184 46.384423l271.113573-194.517205L399.288949 723.633281c0.02763 65.741283 36.479291 61.698201 68.295184 44.618197l479.973809-344.375282C969.661238 401.402345 969.661238 364.978784 947.557942 342.518237zM116.44883 66.724936l339.408757 237.328243c0 0 0-224.082568 0-237.328243l452.545009 316.465628-452.545009 316.450279c0-50.508347 0-237.341546 0-237.341546L116.44883 699.640844C116.44883 649.132496 116.44883 79.970612 116.44883 66.724936z"  horiz-adv-x="1024" />

    
    <glyph glyph-name="play" unicode="&#58967;" d="M195.68-64c-14.19 0-28.37 3.73-41.31 11.2-25.86 14.93-41.3 41.68-41.3 71.54V749.26c0 29.86 15.44 56.61 41.3 71.54s56.74 14.94 82.6 0l632.66-365.27c25.86-14.93 41.3-41.66 41.3-71.52 0.01-29.87-15.43-56.61-41.3-71.54L236.97-52.8c-12.93-7.47-27.12-11.2-41.29-11.2z m0.13 840.9c-6.35 0-11.39-2.33-13.91-3.78-4.13-2.39-13.77-9.5-13.77-23.85v-730.53c0-14.34 9.63-21.46 13.77-23.85 4.14-2.39 15.1-7.17 27.53 0L842.1 360.15c12.43 7.18 13.77 19.07 13.77 23.85 0 4.78-1.34 16.67-13.77 23.84L209.44 773.11c-4.88 2.81-9.53 3.79-13.63 3.79z m660.05-440.59h0.14-0.14z"  horiz-adv-x="1024" />

    


  </font>
</defs>
</svg>
